<svg width="244" height="43" viewBox="0 0 244 43" fill="none" xmlns="http://www.w3.org/2000/svg">
<path opacity="0.5" d="M21.685 45.86C20.9517 45.86 20.585 44.6867 20.585 42.34V38.71C20.585 33.43 20.475 29.305 20.255 26.335L20.09 24.3C19.9433 23.3833 19.87 22.5767 19.87 21.88C19.87 20.6333 19.9067 19.4967 19.98 18.47L20.09 15.06C20.09 13.9233 20.0167 13.0617 19.87 12.475C19.1367 12.9883 16.9183 20.7067 13.215 35.63L13.16 36.455C13.05 37.3717 12.9033 38.105 12.72 38.655C12.61 39.0583 12.445 39.37 12.225 39.59C12.0417 39.81 11.8217 39.92 11.565 39.92C10.9783 39.92 10.5567 39.7733 10.3 39.48C10.0433 39.1867 9.915 38.7283 9.915 38.105C9.915 37.115 9.43833 34.5483 8.485 30.405C7.56833 26.2617 6.56 22.2833 5.46 18.47C4.39667 14.6567 3.66333 12.5483 3.26 12.145C3.22333 13.4283 3.07667 16.4533 2.82 21.22C2.30667 29.6533 2.05 36.29 2.05 41.13L2.105 43.33C1.95833 43.8067 1.57333 44.045 0.95 44.045C0.84 44.045 0.656667 43.935 0.4 43.715C0.143334 43.5317 0.0150004 43.385 0.0150004 43.275C0.0150004 39.975 0.308334 34.1817 0.895 25.895C1.445 18.195 1.72 12.42 1.72 8.57C1.72 8.38666 1.68333 8.20333 1.61 8.02C1.5 7.8 1.445 7.635 1.445 7.525C1.445 6.975 1.92167 6.7 2.875 6.7C3.49833 6.7 3.865 6.975 3.975 7.525C4.12167 8.25833 4.195 8.80833 4.195 9.175L4.25 9.835C4.43333 10.7883 4.965 12.255 5.845 14.235C6.54167 15.8117 7.07333 17.1867 7.44 18.36C7.66 19.24 7.86167 19.955 8.045 20.505C8.63167 22.6317 9.01667 24.2083 9.2 25.235L9.915 26.665C10.025 27.215 10.245 28.1133 10.575 29.36C10.905 30.7533 11.1433 31.89 11.29 32.77C11.4367 33.65 11.51 34.4933 11.51 35.3C11.9133 34.6767 13.05 30.9367 14.92 24.08C16.8267 17.1867 17.945 12.7867 18.275 10.88C18.3117 10.8067 18.33 10.715 18.33 10.605C18.3667 10.4583 18.4033 10.275 18.44 10.055C18.5133 9.57833 18.6783 8.86333 18.935 7.91C19.2283 7.17666 19.6683 6.81 20.255 6.81C20.5117 6.81 20.805 6.92 21.135 7.14C21.465 7.36 21.63 7.58 21.63 7.8C21.63 23.09 21.8683 31.175 22.345 32.055V34.915C22.3083 35.7583 22.29 36.73 22.29 37.83C22.29 40.1767 22.4183 41.9367 22.675 43.11C22.7117 43.1467 22.73 43.2017 22.73 43.275C22.7667 43.3483 22.8033 43.44 22.84 43.55C22.8767 43.6967 22.895 43.8617 22.895 44.045C22.895 44.4483 22.7667 44.8517 22.51 45.255C22.29 45.6583 22.015 45.86 21.685 45.86ZM19.87 12.145H19.815L19.705 12.2L19.87 12.255V12.145ZM32.2111 43.715C31.5511 43.715 31.1844 43.33 31.1111 42.56V41.845C31.1477 41.6617 31.1661 41.4417 31.1661 41.185L30.9461 40.965C31.2394 40.195 31.3861 39.4433 31.3861 38.71C31.3861 37.8667 31.3311 36.6567 31.2211 35.08L31.1111 31.45C31.1111 29.6167 31.1661 26.8667 31.2761 23.2C31.4227 19.9367 31.4961 17.1683 31.4961 14.895L31.3861 11.595C31.3127 10.605 31.2761 9.505 31.2761 8.295C31.2761 7.745 31.4044 7.36 31.6611 7.14C31.9177 6.88333 32.3211 6.755 32.8711 6.755C33.2377 6.755 33.5311 6.865 33.7511 7.085C33.8244 7.12167 34.3561 7.195 35.3461 7.305C36.2627 7.415 37.0511 7.58 37.7111 7.8C38.4077 8.02 38.7561 8.295 38.7561 8.625C38.7561 8.99167 38.4077 9.35833 37.7111 9.725C35.6211 9.02833 34.1361 8.68 33.2561 8.68L32.9811 9.01C33.0177 9.34 33.0361 10.1283 33.0361 11.375C33.0361 12.9517 32.9994 14.3633 32.9261 15.61C32.8894 16.8933 32.8711 18.3233 32.8711 19.9C32.8711 20.9267 33.1277 21.44 33.6411 21.44L34.5211 21.385C34.8144 21.3483 35.1261 21.33 35.4561 21.33C36.8861 21.33 37.6011 21.66 37.6011 22.32C37.6011 22.7233 37.5094 23.0717 37.3261 23.365C37.1427 23.6217 36.8677 23.75 36.5011 23.75C35.9511 23.75 35.5294 23.6033 35.2361 23.31L33.4761 23.035H33.2011L32.9261 23.31V23.475C32.9994 24.0983 33.0361 25.5467 33.0361 27.82C33.0361 29.25 33.0177 30.5517 32.9811 31.725L32.9261 35.63C32.9261 37.06 32.9811 38.5267 33.0911 40.03C33.1277 40.8733 33.3111 41.4417 33.6411 41.735C33.9711 41.9917 34.5761 42.12 35.4561 42.12L36.4461 42.065C36.7761 42.0283 37.1427 42.01 37.5461 42.01C38.6094 42.01 39.1411 42.2483 39.1411 42.725C39.1411 43.385 38.3344 43.715 36.7211 43.715H32.2111ZM66.9633 45.86C66.23 45.86 65.8633 44.6867 65.8633 42.34V38.71C65.8633 33.43 65.7533 29.305 65.5333 26.335L65.3683 24.3C65.2217 23.3833 65.1483 22.5767 65.1483 21.88C65.1483 20.6333 65.185 19.4967 65.2583 18.47L65.3683 15.06C65.3683 13.9233 65.295 13.0617 65.1483 12.475C64.415 12.9883 62.1967 20.7067 58.4933 35.63L58.4383 36.455C58.3283 37.3717 58.1817 38.105 57.9983 38.655C57.8883 39.0583 57.7233 39.37 57.5033 39.59C57.32 39.81 57.1 39.92 56.8433 39.92C56.2567 39.92 55.835 39.7733 55.5783 39.48C55.3217 39.1867 55.1933 38.7283 55.1933 38.105C55.1933 37.115 54.7167 34.5483 53.7633 30.405C52.8467 26.2617 51.8383 22.2833 50.7383 18.47C49.675 14.6567 48.9417 12.5483 48.5383 12.145C48.5017 13.4283 48.355 16.4533 48.0983 21.22C47.585 29.6533 47.3283 36.29 47.3283 41.13L47.3833 43.33C47.2367 43.8067 46.8517 44.045 46.2283 44.045C46.1183 44.045 45.935 43.935 45.6783 43.715C45.4217 43.5317 45.2933 43.385 45.2933 43.275C45.2933 39.975 45.5867 34.1817 46.1733 25.895C46.7233 18.195 46.9983 12.42 46.9983 8.57C46.9983 8.38666 46.9617 8.20333 46.8883 8.02C46.7783 7.8 46.7233 7.635 46.7233 7.525C46.7233 6.975 47.2 6.7 48.1533 6.7C48.7767 6.7 49.1433 6.975 49.2533 7.525C49.4 8.25833 49.4733 8.80833 49.4733 9.175L49.5283 9.835C49.7117 10.7883 50.2433 12.255 51.1233 14.235C51.82 15.8117 52.3517 17.1867 52.7183 18.36C52.9383 19.24 53.14 19.955 53.3233 20.505C53.91 22.6317 54.295 24.2083 54.4783 25.235L55.1933 26.665C55.3033 27.215 55.5233 28.1133 55.8533 29.36C56.1833 30.7533 56.4217 31.89 56.5683 32.77C56.715 33.65 56.7883 34.4933 56.7883 35.3C57.1917 34.6767 58.3283 30.9367 60.1983 24.08C62.105 17.1867 63.2233 12.7867 63.5533 10.88C63.59 10.8067 63.6083 10.715 63.6083 10.605C63.645 10.4583 63.6817 10.275 63.7183 10.055C63.7917 9.57833 63.9567 8.86333 64.2133 7.91C64.5067 7.17666 64.9467 6.81 65.5333 6.81C65.79 6.81 66.0833 6.92 66.4133 7.14C66.7433 7.36 66.9083 7.58 66.9083 7.8C66.9083 23.09 67.1467 31.175 67.6233 32.055V34.915C67.5867 35.7583 67.5683 36.73 67.5683 37.83C67.5683 40.1767 67.6967 41.9367 67.9533 43.11C67.99 43.1467 68.0083 43.2017 68.0083 43.275C68.045 43.3483 68.0817 43.44 68.1183 43.55C68.155 43.6967 68.1733 43.8617 68.1733 44.045C68.1733 44.4483 68.045 44.8517 67.7883 45.255C67.5683 45.6583 67.2933 45.86 66.9633 45.86ZM65.1483 12.145H65.0933L64.9833 12.2L65.1483 12.255V12.145ZM88.7644 31.12C88.9844 35.52 89.1677 38.82 89.3144 41.02C89.3144 41.3867 89.2227 41.7533 89.0394 42.12C88.8927 42.45 88.6177 42.615 88.2144 42.615C87.5544 42.615 87.2244 42.2667 87.2244 41.57C87.2977 39.0033 87.3344 37.0783 87.3344 35.795C87.3344 34.2917 87.261 31.9633 87.1144 28.81L86.8944 25.84L86.7294 12.42C86.6927 12.0167 86.6927 11.54 86.7294 10.99C86.766 10.44 86.7844 10 86.7844 9.67C86.7844 8.97333 86.711 8.25833 86.5644 7.525C86.5277 7.415 86.5094 7.28667 86.5094 7.14C86.5094 6.59 86.8394 6.37 87.4994 6.48C88.2694 6.59 88.691 7.06667 88.7644 7.91C88.801 8.31333 88.8194 8.955 88.8194 9.835C88.8194 10.6783 88.801 11.32 88.7644 11.76L88.3794 22.76L88.7644 31.12ZM80.1844 21.22C81.0644 21.2933 81.9444 21.7883 82.8244 22.705C83.7044 23.6217 84.1994 24.575 84.3094 25.565C84.456 26.8117 84.5844 29.25 84.6944 32.88C84.6944 34.0167 84.566 35.2817 84.3094 36.675C84.0894 38.0683 83.7594 39.26 83.3194 40.25C82.806 41.46 81.376 42.3217 79.0294 42.835C78.6627 42.945 78.3327 43 78.0394 43C76.9394 43 76.3894 42.3033 76.3894 40.91V38.655L76.4444 28.755C76.4444 27.875 76.4077 26.5917 76.3344 24.905L76.2794 22.98C76.2794 22.3933 76.316 21.22 76.3894 19.46C76.4627 16.9667 76.4994 14.7117 76.4994 12.695C76.4994 12.145 76.481 11.3567 76.4444 10.33C76.4077 9.26666 76.3527 8.55167 76.2794 8.185C76.2427 8.11166 76.2244 7.98333 76.2244 7.8C76.2244 7.36 76.4444 7.06667 76.8844 6.92C77.1044 6.84666 77.2694 6.81 77.3794 6.81C77.7094 6.81 77.966 6.975 78.1494 7.305C78.3694 7.635 78.4794 8.075 78.4794 8.625C78.4794 13.5017 78.406 16.9667 78.2594 19.02L78.1494 20.23C78.0394 20.78 77.9844 21.2017 77.9844 21.495C78.2777 21.4583 78.626 21.4033 79.0294 21.33C79.4694 21.22 79.8544 21.1833 80.1844 21.22ZM82.6594 37.17C82.9527 35.4833 83.0994 33.595 83.0994 31.505C83.0994 29.195 82.8977 27.3433 82.4944 25.95C82.2744 25.18 81.871 24.5017 81.2844 23.915C80.6977 23.3283 80.001 23.035 79.1944 23.035C78.8644 23.035 78.5344 23.09 78.2044 23.2V32V36.565C78.2044 37.5183 78.2227 38.325 78.2594 38.985C78.3327 39.6083 78.4794 40.2317 78.6994 40.855C81.0094 40.305 82.3294 39.0767 82.6594 37.17ZM96.0807 23.64C95.7873 23.64 95.5123 23.5483 95.2557 23.365C95.0357 23.1817 94.9257 22.9617 94.9257 22.705C94.9257 22.595 100.041 22.54 110.271 22.54H118.081C118.374 22.54 118.649 22.65 118.906 22.87C119.199 23.0533 119.346 23.255 119.346 23.475H117.641C117.641 23.585 115.716 23.64 111.866 23.64H96.0807ZM127.085 43.495C126.829 43.495 126.572 43.4033 126.315 43.22C126.059 43.0367 125.912 42.835 125.875 42.615C125.582 41.1483 125.399 40.0483 125.325 39.315L125.16 36.345C124.83 31.9817 124.665 28.3883 124.665 25.565C124.665 24.0617 124.702 22.3933 124.775 20.56C124.849 18.69 124.904 17.3883 124.94 16.655L125.105 13.135C125.179 9.46833 125.215 6.73667 125.215 4.94C125.252 4.61 125.252 4.31667 125.215 4.06C125.215 3.80333 125.215 3.58333 125.215 3.4V1.915C125.215 1.62166 125.344 1.38333 125.6 1.2C125.857 1.01666 126.187 0.961665 126.59 1.035C127.177 1.18166 127.415 1.60333 127.305 2.3C127.232 2.70333 127.177 3.05167 127.14 3.345C127.14 3.60166 127.14 3.82166 127.14 4.005L127.03 6.26C126.957 8.24 126.884 9.70667 126.81 10.66C126.774 11.3567 126.682 12.4933 126.535 14.07C126.499 14.62 126.444 15.2983 126.37 16.105C126.297 16.875 126.242 17.7917 126.205 18.855C126.132 21.495 126.095 23.4933 126.095 24.85C126.095 26.5 126.114 27.7467 126.15 28.59C126.187 30.4967 126.352 32.9717 126.645 36.015L126.81 38.27C126.847 38.5267 126.884 38.82 126.92 39.15C126.994 39.4433 127.049 39.7367 127.085 40.03H127.305C127.379 39.9933 127.782 38.6733 128.515 36.07C129.249 33.43 129.762 31.5967 130.055 30.57L132.86 20.56L137.04 5.27C137.444 3.76666 137.719 2.795 137.865 2.355C138.049 1.805 138.415 1.53 138.965 1.53C139.699 1.53 140.029 1.98833 139.955 2.905C139.919 3.19833 139.864 3.565 139.79 4.005C139.717 4.445 139.662 4.94 139.625 5.49C139.625 6.92 139.589 9.175 139.515 12.255L139.35 19.02C139.35 19.46 139.314 20.12 139.24 21C139.167 22.32 139.13 23.3283 139.13 24.025L139.185 29.855C139.259 32.495 139.295 34.475 139.295 35.795V38.765L139.35 41.295V41.46C139.35 41.8267 139.259 42.12 139.075 42.34C138.929 42.56 138.709 42.6517 138.415 42.615C138.159 42.615 137.92 42.4867 137.7 42.23C137.48 41.9733 137.37 41.68 137.37 41.35C137.37 40.9833 137.407 40.5067 137.48 39.92C137.48 39.2967 137.517 38.325 137.59 37.005C137.664 35.0983 137.7 33.6683 137.7 32.715C137.7 30.3683 137.719 28.315 137.755 26.555C137.792 24.7583 137.829 23.2733 137.865 22.1C137.939 20.56 137.975 19.405 137.975 18.635C137.975 17.7183 138.012 16.3067 138.085 14.4C138.159 11.1733 138.195 8.735 138.195 7.085L137.975 7.03L136.71 11.595L133.245 23.805C132.549 26.1883 131.54 29.8 130.22 34.64C129.45 37.3533 128.882 39.5167 128.515 41.13C128.369 41.5333 128.24 42.01 128.13 42.56C127.984 43.1467 127.654 43.4583 127.14 43.495H127.085ZM162.502 43.33C162.135 43.33 161.86 43.2017 161.677 42.945C161.493 42.6517 161.402 42.3033 161.402 41.9V37.005V32.11L161.292 23.31C161.182 19.3867 161.127 16.4533 161.127 14.51L161.182 12.915V9.34C161.182 5.38 161.145 3.4 161.072 3.4H154.857C154.563 3.4 154.288 3.32666 154.032 3.18C153.812 3.03333 153.702 2.83166 153.702 2.575C153.702 2.28167 153.757 2.08 153.867 1.97C153.977 1.86 154.27 1.76833 154.747 1.695C155.26 1.585 155.993 1.53 156.947 1.53H162.447L168.497 1.475C168.937 1.475 169.23 1.54833 169.377 1.695C169.56 1.84166 169.652 2.08 169.652 2.41C169.652 2.96 169.303 3.235 168.607 3.235H166.132H163.712L163.217 3.29L163.272 6.48V10.77V33.1V37.665L163.327 41.735V41.845C163.327 42.1383 163.308 42.395 163.272 42.615C163.235 42.7983 163.162 42.945 163.052 43.055C162.942 43.2383 162.758 43.33 162.502 43.33ZM179.24 44.155C174.144 44.155 171.595 35.3367 171.595 17.7V15.5C171.595 12.42 171.779 9.74333 172.145 7.47C172.365 6.04 172.659 4.86666 173.025 3.95C173.429 3.03333 173.96 2.3 174.62 1.75C175.244 1.12666 176.05 0.814999 177.04 0.814999C177.92 0.814999 178.727 0.998332 179.46 1.365C180.194 1.695 180.799 2.135 181.275 2.685C181.679 3.19833 182.045 3.87666 182.375 4.72C182.705 5.56333 182.962 6.37 183.145 7.14L183.585 9.725C184.465 15.995 184.905 21.55 184.905 26.39V26.555C184.905 28.3883 184.869 30.075 184.795 31.615C184.722 33.4483 184.52 35.3733 184.19 37.39C184.044 38.38 183.824 39.2417 183.53 39.975C183.274 40.7083 182.925 41.4417 182.485 42.175C181.715 43.495 180.634 44.155 179.24 44.155ZM179.35 42.615C179.937 42.615 180.469 42.285 180.945 41.625C181.422 40.9283 181.789 39.975 182.045 38.765C182.632 36.1983 182.999 33.6867 183.145 31.23C183.219 29.25 183.255 27.325 183.255 25.455V25.235L183.2 19.735C183.127 17.755 182.907 15.1883 182.54 12.035C182.247 9.79833 181.642 7.50667 180.725 5.16C180.359 4.24333 179.864 3.52833 179.24 3.015C178.654 2.50166 178.012 2.245 177.315 2.245C176.692 2.245 176.142 2.53833 175.665 3.125C175.189 3.71166 174.804 4.53666 174.51 5.6C173.85 8.05667 173.484 10.33 173.41 12.42C173.3 14.2167 173.245 16.0683 173.245 17.975V20.67C173.245 23.1267 173.484 26.2433 173.96 30.02C174.254 32.4033 174.62 34.475 175.06 36.235C175.5 37.995 176.087 39.48 176.82 40.69C177.554 41.9733 178.397 42.615 179.35 42.615ZM197.784 43.44C197.528 43.44 197.308 43.3483 197.124 43.165C196.941 43.0183 196.813 42.8167 196.739 42.56L196.794 41.79V35.85C196.794 33.21 196.776 31.23 196.739 29.91C196.703 28.0767 196.611 25.29 196.464 21.55C196.464 21.44 196.464 21.22 196.464 20.89C196.464 20.56 196.446 20.23 196.409 19.9C196.153 20.23 195.896 20.6333 195.639 21.11C195.419 21.5867 195.273 21.88 195.199 21.99C194.943 22.54 194.503 22.98 193.879 23.31C193.256 23.6033 192.578 23.75 191.844 23.75C190.671 23.75 189.828 23.42 189.314 22.76C188.801 22.1 188.544 21.1467 188.544 19.9L188.214 4.06C188.214 3.87666 188.196 3.675 188.159 3.455C188.123 3.235 188.104 2.99666 188.104 2.74C188.104 1.89666 188.379 1.49333 188.929 1.53C189.259 1.53 189.479 1.695 189.589 2.025C189.736 2.31833 189.809 2.63 189.809 2.96C189.809 3.84 189.828 4.51833 189.864 4.995C189.864 8.36833 189.919 11.4117 190.029 14.125L190.084 16.82C190.121 17.4067 190.139 18.2867 190.139 19.46C190.139 20.45 190.286 21.1467 190.579 21.55C190.873 21.9533 191.368 22.155 192.064 22.155C192.651 22.155 193.146 22.0083 193.549 21.715C194.356 20.9083 194.998 19.8267 195.474 18.47C195.988 17.1133 196.244 15.885 196.244 14.785C196.244 12.035 196.281 8.53333 196.354 4.28C196.354 4.06 196.318 3.82167 196.244 3.565C196.208 3.27167 196.189 2.99666 196.189 2.74C196.189 2.59333 196.226 2.41 196.299 2.19C196.373 1.93333 196.519 1.76833 196.739 1.695C196.959 1.62167 197.179 1.62167 197.399 1.695C197.766 1.87833 197.949 2.26333 197.949 2.85C198.023 4.53667 198.059 5.69167 198.059 6.315C198.059 7.48833 198.023 9.505 197.949 12.365C197.839 14.675 197.784 16.9117 197.784 19.075C197.784 21.495 197.913 24.3733 198.169 27.71L198.389 31.45C198.426 31.8533 198.444 32.44 198.444 33.21V35.025L198.774 42.56C198.664 43.1833 198.334 43.4767 197.784 43.44ZM215.689 43.22C214.773 43.22 213.984 42.945 213.324 42.395C212.664 41.845 212.188 41.0567 211.894 40.03C211.784 39.5167 211.711 38.9483 211.674 38.325C211.638 37.665 211.619 37.225 211.619 37.005L211.454 32.44C211.381 29.8 211.308 27.71 211.234 26.17C211.198 25.4733 211.088 24.795 210.904 24.135C210.758 23.585 210.556 23.2 210.299 22.98C210.079 22.7233 209.749 22.595 209.309 22.595C208.943 22.595 208.521 22.65 208.044 22.76V25.895C208.044 27.1417 208.118 29.085 208.264 31.725C208.264 32.3117 208.301 33.2283 208.374 34.475C208.668 38.5817 208.814 41.1117 208.814 42.065C208.704 42.725 208.393 43.055 207.879 43.055C207.183 43.055 206.834 42.7067 206.834 42.01C206.834 39.7733 206.816 38.105 206.779 37.005C206.669 34.255 206.614 31.5417 206.614 28.865L206.504 23.42L206.339 15.775C206.303 14.895 206.284 13.5383 206.284 11.705L206.339 3.51L206.284 2.63C206.284 2.37333 206.339 2.135 206.449 1.915C206.449 1.84167 206.504 1.76833 206.614 1.695C206.724 1.585 206.908 1.53 207.164 1.53C207.604 1.56667 207.843 1.915 207.879 2.575C207.879 3.08833 207.916 3.93167 207.989 5.105L208.044 7.635C208.008 8.69833 207.953 10.7517 207.879 13.795C207.806 16.8383 207.788 18.8917 207.824 19.955C207.824 20.4317 208.008 20.67 208.374 20.67C208.668 20.67 208.998 20.56 209.364 20.34C210.354 19.7167 210.923 18.2133 211.069 15.83C211.143 14.95 211.179 14.2533 211.179 13.74C211.253 12.75 211.326 11.7233 211.399 10.66C211.473 9.59667 211.546 8.53333 211.619 7.47C211.729 5.71 212.426 4.02333 213.709 2.41C214.223 1.75 214.883 1.42 215.689 1.42C216.203 1.42 216.643 1.53 217.009 1.75C217.449 1.93333 217.669 2.20833 217.669 2.575C217.669 2.905 217.578 3.10667 217.394 3.18C217.248 3.25333 217.009 3.25333 216.679 3.18C216.239 3.07 215.891 3.015 215.634 3.015C215.268 3.015 214.974 3.10666 214.754 3.29C214.571 3.43666 214.369 3.71166 214.149 4.115C213.599 5.03166 213.233 6.05833 213.049 7.195C212.866 8.295 212.738 9.63333 212.664 11.21C212.591 12.31 212.554 13.135 212.554 13.685C212.554 13.9783 212.536 14.51 212.499 15.28C212.463 16.0133 212.408 16.7467 212.334 17.48C212.041 19.7533 211.179 21.0733 209.749 21.44C210.629 21.44 211.253 21.7333 211.619 22.32C211.986 22.9067 212.298 23.7683 212.554 24.905C212.664 25.455 212.719 26.39 212.719 27.71V31.505C212.756 32.4583 212.848 34.0167 212.994 36.18C212.994 36.5467 213.031 37.17 213.104 38.05C213.178 38.93 213.434 39.7367 213.874 40.47C214.314 41.2033 214.883 41.57 215.579 41.57C215.653 41.57 215.836 41.5333 216.129 41.46C216.569 41.24 216.954 41.13 217.284 41.13C217.651 41.13 217.889 41.3317 217.999 41.735C218.036 42.0283 217.926 42.3217 217.669 42.615C217.413 42.8717 217.101 43.0367 216.734 43.11C216.221 43.1833 215.873 43.22 215.689 43.22ZM232.861 43C232.567 43 232.311 42.9083 232.091 42.725C231.907 42.5417 231.816 42.3217 231.816 42.065V34.86C231.816 34.42 230.881 34.0167 229.011 33.65C227.141 33.2833 225.601 33.1 224.391 33.1C224.317 33.1 224.189 33.375 224.006 33.925C223.859 34.475 223.749 34.8783 223.676 35.135C223.199 37.0417 222.722 39.0767 222.246 41.24L221.971 42.45C221.897 42.7433 221.714 42.89 221.421 42.89C221.127 42.89 220.852 42.7983 220.596 42.615C220.376 42.4317 220.266 42.2117 220.266 41.955L220.321 41.845V41.79L220.926 39.04C221.366 37.3167 221.751 35.63 222.081 33.98C222.447 32.11 222.722 30.9 222.906 30.35C223.199 29.14 223.786 26.115 224.666 21.275L224.996 19.46C225.949 13.8133 226.609 10.2567 226.976 8.79C227.159 7.91 227.489 6.60833 227.966 4.885C228.149 4.15166 228.406 3.41833 228.736 2.685C229.066 2.06166 229.341 1.75 229.561 1.75C230.147 1.75 230.569 1.93333 230.826 2.3C231.009 2.63 231.284 4.445 231.651 7.745C232.054 11.045 232.402 14.3817 232.696 17.755L233.411 26.885C233.411 28.4617 233.521 30.845 233.741 34.035C233.961 37.2617 234.071 39.6633 234.071 41.24V41.46C234.071 41.8633 234.016 42.23 233.906 42.56C233.759 42.8533 233.411 43 232.861 43ZM230.661 32.385C231.394 32.385 231.761 32.2017 231.761 31.835C231.761 29.5617 231.632 26.4633 231.376 22.54C231.119 18.58 230.844 15.0967 230.551 12.09C230.477 10.8067 230.331 9.395 230.111 7.855L229.891 5.71C229.891 5.74666 229.854 5.545 229.781 5.105L229.671 4.445C229.377 5.25167 229.084 6.37 228.791 7.8C228.534 9.23 228.259 10.9167 227.966 12.86C227.086 18.3233 226.334 22.43 225.711 25.18L225.216 27.05C224.666 28.8833 224.391 30.2767 224.391 31.23V31.56C226.004 32.0733 227.856 32.33 229.946 32.33H230.276C230.386 32.3667 230.514 32.385 230.661 32.385ZM241.69 43.22C241.36 43.22 241.067 43.0917 240.81 42.835C240.59 42.5417 240.48 42.23 240.48 41.9C240.48 41.5333 240.627 41.2033 240.92 40.91C241.213 40.58 241.543 40.415 241.91 40.415C242.203 40.415 242.497 40.58 242.79 40.91C243.083 41.2033 243.23 41.515 243.23 41.845C243.23 42.7617 242.717 43.22 241.69 43.22Z" fill="white"/>
</svg>
